<?xml version="1.0" standalone="no"?>
<!DOCTYPE svg PUBLIC "-//W3C//DTD SVG 20010904//EN"
 "http://www.w3.org/TR/2001/REC-SVG-20010904/DTD/svg10.dtd">
<svg version="1.0" xmlns="http://www.w3.org/2000/svg"
 width="805.000000pt" height="805.000000pt" viewBox="0 0 805.000000 805.000000"
 preserveAspectRatio="xMidYMid meet">
<metadata>
Created by potrace 1.11, written by Peter Selinger 2001-2013
</metadata>
<g transform="translate(0.000000,805.000000) scale(0.100000,-0.100000)"
fill="#000000" stroke="none">
<path d="M2676 6974 c-64 -20 -103 -50 -129 -99 -21 -38 -22 -52 -22 -350 0
-348 5 -381 68 -427 62 -46 86 -51 245 -56 l152 -4 -2 248 -3 249 -107 3 -108
3 0 -51 0 -50 58 0 57 0 0 -150 0 -149 -37 -6 c-50 -9 -119 3 -158 26 -56 34
-60 59 -60 356 0 301 4 319 70 358 29 16 54 20 140 21 l105 1 3 47 3 46 -113
-1 c-70 0 -132 -6 -162 -15z"/>
<path d="M5480 6940 l0 -50 165 0 c91 0 165 -2 165 -4 0 -12 -69 -151 -186
-376 -133 -255 -166 -334 -179 -422 l-7 -48 241 0 242 0 -3 48 -3 47 -178 3
-178 2 44 83 c24 45 106 204 182 354 130 257 138 276 143 342 l5 71 -227 0
-226 0 0 -50z"/>
<path d="M3370 6699 c-93 -28 -115 -91 -115 -329 0 -163 0 -166 30 -225 27
-55 35 -62 85 -82 47 -19 74 -22 183 -23 l128 0 -3 46 -3 47 -101 -2 c-120 -2
-164 11 -194 61 -25 42 -27 109 -2 131 15 14 47 17 183 19 l164 3 3 44 c5 68
-16 209 -35 242 -33 55 -74 72 -187 75 -56 2 -117 -1 -136 -7z m186 -94 c39
-16 64 -62 64 -118 0 -52 -18 -60 -129 -61 -124 -1 -136 6 -127 80 8 72 14 84
50 100 41 18 98 17 142 -1z"/>
<path d="M3980 6375 l0 -335 49 0 c48 0 49 0 56 36 3 20 6 134 5 253 -2 119 1
224 5 233 10 24 64 56 100 59 73 5 97 -1 131 -35 l34 -34 0 -256 0 -256 56 0
55 0 -3 263 c-3 256 -4 263 -28 312 -15 31 -38 57 -58 69 -43 24 -150 32 -237
17 -48 -9 -71 -9 -78 -2 -6 6 -28 11 -49 11 l-38 0 0 -335z"/>
<path d="M5214 5750 c-196 -30 -428 -162 -593 -336 -132 -138 -218 -293 -274
-494 -21 -73 -21 -96 -23 -731 l-2 -656 191 -8 c237 -9 928 -4 1057 7 126 11
252 48 376 108 507 246 749 836 563 1368 -123 350 -395 609 -755 718 -82 25
-105 27 -289 30 -110 1 -223 -1 -251 -6z m331 -515 c298 -63 481 -267 493
-550 10 -247 -111 -467 -312 -565 -112 -55 -210 -68 -558 -72 -267 -3 -278 -2
-298 17 -19 19 -20 34 -20 330 -1 354 5 401 64 526 49 101 139 194 246 252
132 71 251 90 385 62z"/>
<path d="M3363 3425 c-65 -20 -124 -58 -180 -117 -239 -254 -94 -618 202 -507
185 69 303 292 250 475 -13 46 -27 69 -64 105 -62 60 -119 72 -208 44z"/>
<path d="M2653 3386 c-114 -37 -194 -127 -229 -261 -39 -144 18 -287 131 -331
50 -19 93 -14 165 17 163 72 249 322 165 478 -49 89 -139 127 -232 97z"/>
<path d="M3850 2876 c-125 -36 -239 -126 -290 -229 -54 -109 -36 -231 43 -291
54 -41 101 -56 177 -56 208 0 408 163 427 346 10 97 -41 180 -135 220 -50 21
-166 27 -222 10z"/>
<path d="M3005 2644 c-16 -3 -107 -16 -202 -29 -104 -15 -218 -25 -290 -25
-138 0 -221 -17 -305 -62 -145 -77 -222 -236 -183 -382 28 -105 85 -163 262
-267 143 -83 202 -142 322 -319 158 -233 246 -297 396 -288 146 10 255 106
307 271 14 46 21 112 28 257 5 120 17 235 29 300 42 214 41 202 21 284 -29
116 -90 195 -180 235 -46 20 -151 32 -205 25z"/>
<path d="M3779 2127 c-122 -42 -194 -110 -224 -209 -32 -108 24 -205 145 -255
66 -26 187 -24 263 6 167 66 252 223 188 349 -57 111 -226 161 -372 109z"/>
</g>
</svg>
