<svg width="47" height="47" viewBox="0 0 47 47" fill="none" xmlns="http://www.w3.org/2000/svg">
<rect width="47" height="47" fill="black" fill-opacity="0"/>
<path fill-rule="evenodd" clip-rule="evenodd" d="M23.5 0C10.5215 0 0 10.5214 0 23.5C0 36.4786 10.5215 47 23.5 47C36.4785 47 47 36.4786 47 23.5C47 10.5214 36.4785 0 23.5 0ZM18.3335 11.0424C19.6699 10.9816 20.0972 10.9667 23.4976 10.9667C26.9023 10.9667 27.3281 10.9816 28.665 11.0424C29.999 11.1035 30.9106 11.3147 31.7095 11.6246C32.5347 11.9446 33.2319 12.3728 33.9287 13.0699C34.626 13.7666 35.0542 14.4658 35.3755 15.2902C35.6836 16.0872 35.895 16.9979 35.9575 18.3322C36.0176 19.6691 36.0337 20.0963 36.0337 23.5001C36.0337 25.2444 36.0293 26.2068 36.0171 26.9104C36.0059 27.58 35.9868 28.0153 35.9575 28.6671C35.895 30.0009 35.6836 30.9119 35.3755 31.709C35.0542 32.5331 34.626 33.2324 33.9287 33.9291C33.2324 34.6262 32.5342 35.0554 31.71 35.3756C30.9126 35.6855 30.001 35.8967 28.6665 35.9579C27.3296 36.0187 26.9038 36.0336 23.4995 36.0336C20.0962 36.0336 19.6694 36.0187 18.3325 35.9579C16.998 35.8967 16.0874 35.6855 15.29 35.3756C14.4658 35.0554 13.7666 34.6262 13.0703 33.9291C12.3735 33.2324 11.9453 32.5331 11.625 31.7087C11.3149 30.9119 11.104 30.0011 11.0425 28.6667C10.9819 27.33 10.9668 26.9041 10.9668 23.5001C10.9668 20.0963 10.9824 19.6688 11.0425 18.3319C11.1025 16.9982 11.314 16.0872 11.6245 15.2899C11.9458 14.4658 12.374 13.7666 13.0713 13.0699C13.7676 12.373 14.4668 11.9448 15.2915 11.6246C16.0884 11.3147 16.999 11.1035 18.3335 11.0424Z" fill="#6F6F6F"/>
<path fill-rule="evenodd" clip-rule="evenodd" d="M22.377 13.2254H23.5015C26.8477 13.2254 27.2446 13.2373 28.5659 13.2974C29.7881 13.3533 30.4512 13.5575 30.8931 13.729C31.478 13.9562 31.895 14.2277 32.3335 14.6664C32.5469 14.8799 32.7207 15.0885 32.8691 15.3139C33.0259 15.5514 33.1543 15.8076 33.271 16.1078C33.4429 16.5491 33.6475 17.2123 33.7026 18.4342C33.7627 19.7555 33.7759 20.1524 33.7759 23.4973C33.7759 25.3508 33.772 26.2991 33.7583 27.001C33.7471 27.5658 33.7295 27.9712 33.7026 28.5603C33.647 29.7822 33.4429 30.4456 33.271 30.8869C33.1577 31.1785 33.0332 31.4284 32.8823 31.6599C32.731 31.8926 32.5532 32.1068 32.3335 32.3266C31.8945 32.7653 31.478 33.0368 30.8931 33.2639C30.4517 33.4363 29.7881 33.64 28.5659 33.6958C27.2446 33.7559 26.8477 33.7689 23.5015 33.7689C20.1548 33.7689 19.7583 33.7559 18.437 33.6958C17.9834 33.6748 17.6069 33.6336 17.29 33.5812C16.7529 33.4923 16.3877 33.3716 16.1094 33.2637C15.5244 33.0365 15.1069 32.765 14.668 32.3263C14.4839 32.1423 14.3296 31.9623 14.1953 31.7721C14.0098 31.5086 13.8628 31.2256 13.7305 30.8858C13.5586 30.4445 13.354 29.7813 13.2988 28.5592C13.2388 27.2379 13.2266 26.8411 13.2266 23.4942C13.2266 21.3795 13.2314 20.4433 13.2505 19.7073C13.2612 19.2785 13.2769 18.9176 13.2988 18.4312C13.3281 17.7899 13.3979 17.3025 13.4829 16.9203C13.5596 16.5741 13.6489 16.3141 13.7305 16.1041C13.8481 15.8006 13.978 15.542 14.1372 15.3023C14.2847 15.08 14.457 14.8738 14.668 14.6627C15.1069 14.2241 15.5244 13.9525 16.1094 13.7249C16.3271 13.6399 16.5991 13.5473 16.9653 13.4684C17.3418 13.3875 17.8179 13.3212 18.437 13.2927C19.0962 13.263 19.5254 13.245 20.2056 13.2352C20.7178 13.2278 21.373 13.2251 22.377 13.2254ZM30.1914 15.3064C29.3613 15.3064 28.6875 15.9794 28.6875 16.81C28.6875 17.6403 29.3613 18.314 30.1914 18.314C31.022 18.314 31.6953 17.6403 31.6953 16.81C31.6953 15.9796 31.022 15.3059 30.1914 15.3064ZM17.0645 23.5001C17.0645 19.9457 19.9463 17.0637 23.501 17.0637C27.0552 17.0637 29.9365 19.9457 29.9365 23.5001C29.9365 27.0547 27.0557 29.9353 23.501 29.9353C19.9463 29.9353 17.0645 27.0547 17.0645 23.5001Z" fill="#6F6F6F"/>
<path fill-rule="evenodd" clip-rule="evenodd" d="M23.5011 19.3223C25.8083 19.3223 27.6789 21.1926 27.6789 23.5001C27.6789 25.8073 25.8083 27.6779 23.5011 27.6779C21.1936 27.6779 19.3232 25.8073 19.3232 23.5001C19.3232 21.1926 21.1936 19.3223 23.5011 19.3223V19.3223Z" fill="#6F6F6F"/>
</svg>
