<svg width="47" height="47" viewBox="0 0 47 47" fill="none" xmlns="http://www.w3.org/2000/svg">
<rect width="47" height="47" fill="black" fill-opacity="0"/>
<path fill-rule="evenodd" clip-rule="evenodd" d="M23.5 47C36.4785 47 47 36.4786 47 23.5C47 10.5214 36.4785 0 23.5 0C10.5215 0 0 10.5214 0 23.5C0 36.4786 10.5215 47 23.5 47ZM23.8271 22.181C21.9917 22.181 12.5332 16.8175 12.5332 16.8175V15.98C12.5332 14.9423 13.3755 14.1 14.415 14.1H33.2397C34.2803 14.1 35.1226 14.9423 35.1226 15.98L35.1074 16.9199C35.1074 16.9199 25.7515 22.181 23.8271 22.181ZM35.1074 19.74C35.1074 19.74 25.8398 24.7661 23.8271 24.7661C21.9917 24.7661 12.5474 19.74 12.5483 19.74L12.5332 31.02C12.5332 32.0577 13.3765 32.9 14.415 32.9H33.2397C34.2803 32.9 35.1226 32.0577 35.1226 31.02L35.1074 19.74Z" fill="#6F6F6F"/>
</svg>
